<svg width="914" height="280" fill="none" xmlns="http://www.w3.org/2000/svg"><path fill="#E65100" d="M0 0h301v280H0z"/><path d="M385.296 124.768c-6.656 0-13.056-1.067-19.2-3.2-6.059-2.219-10.752-5.035-14.08-8.448l3.712-7.296c3.157 3.072 7.381 5.675 12.672 7.808 5.376 2.048 11.008 3.072 16.896 3.072 5.632 0 10.197-.683 13.696-2.048 3.584-1.451 6.187-3.371 7.808-5.76 1.707-2.389 2.56-5.035 2.56-7.936 0-3.499-1.024-6.315-3.072-8.448-1.963-2.133-4.565-3.797-7.808-4.992-3.243-1.28-6.827-2.39-10.752-3.328a593.512 593.512 0 0 1-11.776-2.944c-3.925-1.11-7.552-2.56-10.88-4.352-3.243-1.792-5.888-4.139-7.936-7.04-1.963-2.987-2.944-6.87-2.944-11.648 0-4.437 1.152-8.49 3.456-12.16 2.389-3.755 6.016-6.741 10.88-8.96 4.864-2.304 11.093-3.456 18.688-3.456 5.035 0 10.027.725 14.976 2.176 4.949 1.365 9.216 3.285 12.8 5.76l-3.2 7.552c-3.84-2.56-7.936-4.437-12.288-5.632-4.267-1.195-8.405-1.792-12.416-1.792-5.376 0-9.813.725-13.312 2.176-3.499 1.45-6.101 3.413-7.808 5.888-1.621 2.39-2.432 5.12-2.432 8.192 0 3.499.981 6.315 2.944 8.448 2.048 2.133 4.693 3.797 7.936 4.992 3.328 1.195 6.955 2.261 10.88 3.2 3.925.939 7.808 1.963 11.648 3.072 3.925 1.11 7.509 2.56 10.752 4.352 3.328 1.707 5.973 4.01 7.936 6.912 2.048 2.901 3.072 6.699 3.072 11.392 0 4.352-1.195 8.405-3.584 12.16-2.389 3.669-6.059 6.656-11.008 8.96-4.864 2.219-11.136 3.328-18.816 3.328ZM504.878 34.4h9.344V124h-9.344V34.4ZM448.814 124h-9.472V34.4h9.472V124Zm56.96-41.344H447.79v-8.32h57.984v8.32ZM529.131 124l40.96-89.6h9.344l40.96 89.6h-9.984l-37.632-84.096h3.84L538.987 124h-9.856Zm16.128-23.936 2.816-7.68h52.096l2.816 7.68h-57.728ZM635.217 124V34.4h33.536c7.595 0 14.123 1.237 19.584 3.712 5.461 2.39 9.643 5.888 12.544 10.496 2.987 4.523 4.48 10.027 4.48 16.512 0 6.315-1.493 11.776-4.48 16.384-2.901 4.523-7.083 8.021-12.544 10.496-5.461 2.39-11.989 3.584-19.584 3.584h-28.288l4.224-4.352V124h-9.472Zm61.184 0-23.04-32.512h10.24L706.769 124h-10.368Zm-51.712-32-4.224-4.48h28.032c8.96 0 15.744-1.963 20.352-5.888 4.693-3.925 7.04-9.43 7.04-16.512 0-7.168-2.347-12.715-7.04-16.64-4.608-3.925-11.392-5.888-20.352-5.888h-28.032l4.224-4.48V92Zm91.476-17.536h47.36v8.064h-47.36v-8.064Zm1.024 41.344h53.888V124h-63.36V34.4h61.44v8.192h-51.968v73.216ZM813.342 124V34.4h36.48c9.557 0 17.92 1.92 25.088 5.76 7.253 3.755 12.885 9.003 16.896 15.744 4.011 6.741 6.016 14.507 6.016 23.296 0 8.79-2.005 16.555-6.016 23.296s-9.643 12.032-16.896 15.872c-7.168 3.755-15.531 5.632-25.088 5.632h-36.48Zm9.472-8.192h26.496c7.936 0 14.805-1.536 20.608-4.608 5.888-3.157 10.453-7.467 13.696-12.928 3.243-5.547 4.864-11.904 4.864-19.072 0-7.253-1.621-13.61-4.864-19.072-3.243-5.461-7.808-9.728-13.696-12.8-5.803-3.157-12.672-4.736-20.608-4.736h-26.496v73.216Z" fill="#1E1E1E" fill-opacity=".69"/><path d="M348.624 248v-89.6h38.784c8.021 0 14.933 1.323 20.736 3.968 5.803 2.56 10.283 6.272 13.44 11.136 3.157 4.864 4.736 10.667 4.736 17.408 0 6.656-1.579 12.416-4.736 17.28-3.157 4.779-7.637 8.448-13.44 11.008-5.803 2.56-12.715 3.84-20.736 3.84h-27.264l9.216-9.088V248h-20.736Zm56.96 0-22.4-32.512h22.144L427.984 248h-22.4Zm-36.224-31.744-9.216-9.728h26.112c6.4 0 11.179-1.365 14.336-4.096 3.157-2.816 4.736-6.656 4.736-11.52 0-4.949-1.579-8.789-4.736-11.52s-7.936-4.096-14.336-4.096h-26.112l9.216-9.856v50.816Zm92.461-21.76h43.136v16.128h-43.136v-16.128Zm1.536 36.864h48.768V248h-69.376v-89.6h67.712v16.64h-47.104v56.32Zm108.147 18.176c-6.912 0-13.355-1.109-19.328-3.328-5.888-2.304-11.008-5.547-15.36-9.728s-7.765-9.088-10.24-14.72c-2.389-5.632-3.584-11.819-3.584-18.56 0-6.741 1.195-12.928 3.584-18.56 2.475-5.632 5.888-10.539 10.24-14.72 4.437-4.181 9.6-7.381 15.488-9.6 5.888-2.304 12.331-3.456 19.328-3.456 7.765 0 14.763 1.365 20.992 4.096 6.315 2.645 11.605 6.571 15.872 11.776l-13.312 12.288c-3.072-3.499-6.485-6.101-10.24-7.808-3.755-1.792-7.851-2.688-12.288-2.688-4.181 0-8.021.683-11.52 2.048-3.499 1.365-6.528 3.328-9.088 5.888-2.56 2.56-4.565 5.589-6.016 9.088-1.365 3.499-2.048 7.381-2.048 11.648 0 4.267.683 8.149 2.048 11.648 1.451 3.499 3.456 6.528 6.016 9.088 2.56 2.56 5.589 4.523 9.088 5.888 3.499 1.365 7.339 2.048 11.52 2.048 4.437 0 8.533-.853 12.288-2.56 3.755-1.792 7.168-4.48 10.24-8.064l13.312 12.288c-4.267 5.205-9.557 9.173-15.872 11.904-6.229 2.731-13.269 4.096-21.12 4.096ZM622.499 248v-89.6h20.736V248h-20.736Zm42 0v-89.6h38.784c8.021 0 14.933 1.323 20.736 3.968 5.803 2.56 10.283 6.272 13.44 11.136 3.157 4.864 4.736 10.667 4.736 17.408 0 6.656-1.579 12.416-4.736 17.28-3.157 4.864-7.637 8.619-13.44 11.264-5.803 2.56-12.715 3.84-20.736 3.84h-27.264l9.216-9.344V248h-20.736Zm20.736-31.744-9.216-9.856h26.112c6.4 0 11.179-1.365 14.336-4.096s4.736-6.528 4.736-11.392c0-4.949-1.579-8.789-4.736-11.52s-7.936-4.096-14.336-4.096h-26.112l9.216-9.856v50.816Zm90.836-21.76h43.136v16.128h-43.136v-16.128Zm1.536 36.864h48.768V248h-69.376v-89.6h67.712v16.64h-47.104v56.32Zm94.707 18.176c-7.168 0-14.037-.939-20.608-2.816-6.571-1.963-11.861-4.48-15.872-7.552l7.04-15.616c3.84 2.731 8.363 4.992 13.568 6.784 5.291 1.707 10.624 2.56 16 2.56 4.096 0 7.381-.384 9.856-1.152 2.56-.853 4.437-2.005 5.632-3.456 1.195-1.451 1.792-3.115 1.792-4.992 0-2.389-.939-4.267-2.816-5.632-1.877-1.451-4.352-2.603-7.424-3.456-3.072-.939-6.485-1.792-10.24-2.56a145.02 145.02 0 0 1-11.136-3.072c-3.669-1.195-7.04-2.731-10.112-4.608-3.072-1.877-5.589-4.352-7.552-7.424-1.877-3.072-2.816-6.997-2.816-11.776 0-5.12 1.365-9.771 4.096-13.952 2.816-4.267 6.997-7.637 12.544-10.112 5.632-2.56 12.672-3.84 21.12-3.84 5.632 0 11.179.683 16.64 2.048 5.461 1.28 10.283 3.243 14.464 5.888l-6.4 15.744c-4.181-2.389-8.363-4.139-12.544-5.248-4.181-1.195-8.277-1.792-12.288-1.792-4.011 0-7.296.469-9.856 1.408-2.56.939-4.395 2.176-5.504 3.712-1.109 1.451-1.664 3.157-1.664 5.12 0 2.304.939 4.181 2.816 5.632 1.877 1.365 4.352 2.475 7.424 3.328 3.072.853 6.443 1.707 10.112 2.56 3.755.853 7.467 1.835 11.136 2.944 3.755 1.109 7.168 2.603 10.24 4.48a22.059 22.059 0 0 1 7.424 7.424c1.963 3.072 2.944 6.955 2.944 11.648 0 5.035-1.408 9.643-4.224 13.824-2.816 4.181-7.04 7.552-12.672 10.112-5.547 2.56-12.587 3.84-21.12 3.84Z" fill="#1E1E1E"/><g clip-path="url(#a)"><path d="M205.574 93.032c-1.145 0-2.285.047-3.418.14l11.6-14.855c3.345 1.513 7.059 2.072 10.805 1.587 5.308-.689 10.021-3.39 13.271-7.609l7.784-10.103c6.729-8.734 5.098-21.313-3.635-28.044-8.736-6.729-21.317-5.098-28.046 3.636l-7.785 10.103c-5.768 7.49-5.452 17.733.28 24.779l-18.204 23.312a41.527 41.527 0 0 0-12.266-16.52 41.366 41.366 0 0 0-25.962-9.187 41.367 41.367 0 0 0-25.96 9.187 41.548 41.548 0 0 0-12.266 16.518L93.566 72.661a19.94 19.94 0 0 0 .282-24.775l-7.783-10.102c-6.729-8.735-19.31-10.365-28.047-3.635-8.732 6.729-10.363 19.31-3.634 28.043l7.783 10.102c5.763 7.482 15.82 9.752 24.076 6.022l11.601 14.856a41.508 41.508 0 0 0-3.42-.14c-22.756 0-41.27 18.514-41.27 41.272s18.514 41.273 41.27 41.273c3.83 0 7.569-.512 11.178-1.528v27.74l-30.249 38.738a4.626 4.626 0 0 0 7.292 5.695l22.957-29.399v9.5a4.627 4.627 0 0 0 4.626 4.627h79.543a4.627 4.627 0 0 0 4.626-4.627v-9.498l22.956 29.397a4.617 4.617 0 0 0 3.649 1.779 4.626 4.626 0 0 0 3.643-7.473l-30.248-38.737v-27.742a41.172 41.172 0 0 0 11.177 1.528c22.757 0 41.272-18.515 41.272-41.273 0-22.758-18.514-41.272-41.272-41.272Zm7.906-39.498 7.785-10.103c3.615-4.693 10.376-5.569 15.069-1.954 4.693 3.616 5.568 10.376 1.953 15.068l-7.784 10.103c-1.742 2.26-4.275 3.71-7.132 4.08-2.856.371-5.673-.383-7.932-2.122l-.01-.008h-.001a8.98 8.98 0 0 1-.341-.278c-4.354-3.65-5.075-10.285-1.607-14.786ZM84.883 68.345a7.06 7.06 0 0 1-.293.24l-.011.008a.184.184 0 0 0-.013.01c-4.694 3.615-11.454 2.74-15.07-1.955l-7.783-10.102c-3.614-4.692-2.739-11.452 1.953-15.067a10.692 10.692 0 0 1 6.546-2.23c3.222 0 6.41 1.44 8.524 4.183l7.783 10.102c3.47 4.501 2.749 11.135-1.636 14.811Zm120.691 97.979c-4.832 0-9.477-1.05-13.806-3.121a4.626 4.626 0 0 0-6.623 4.174v26.757h-46.349a4.626 4.626 0 1 0 0 9.252h46.349v18.31h-70.29v-54.319a4.627 4.627 0 0 0-6.623-4.173 31.733 31.733 0 0 1-13.807 3.121c-17.655 0-32.018-14.364-32.018-32.021 0-17.656 14.363-32.02 32.018-32.02a31.888 31.888 0 0 1 17.314 5.082 4.629 4.629 0 0 0 7.02-2.875c3.251-14.468 16.389-24.969 31.239-24.969 14.851 0 27.991 10.501 31.242 24.969a4.626 4.626 0 0 0 7.019 2.875 31.896 31.896 0 0 1 17.315-5.082c17.656 0 32.019 14.364 32.019 32.02 0 17.657-14.363 32.02-32.019 32.02Z" fill="#fff"/></g><defs><clipPath id="a"><path fill="#fff" transform="translate(41 30)" d="M0 0h218v218H0z"/></clipPath></defs></svg>